<mxfile host="app.diagrams.net" modified="2023-06-12T21:40:19.111Z" agent="Mozilla/5.0 (X11; Ubuntu; Linux x86_64; rv:109.0) Gecko/20100101 Firefox/112.0" version="21.3.8" etag="BEEibCL1tr10x5Pa5a2H" type="github">
  <diagram name="Page-1" id="MHcUiq6WpDQYky3Nm4rv">
    <mxGraphModel>
      <root>
        <mxCell id="0" />
        <mxCell id="1" parent="0" />
      </root>
    </mxGraphModel>
  </diagram>
</mxfile>
